<svg id="Layer_1" data-name="Layer 1" xmlns="http://www.w3.org/2000/svg" xmlns:xlink="http://www.w3.org/1999/xlink" viewBox="0 0 240 72.9"><defs><style>.cls-1{fill:none;}.cls-2{fill:#fdbd10;}.cls-3{fill:#0b0204;}.cls-4{fill:#fff;}.cls-5{clip-path:url(#clip-path);}</style><clipPath id="clip-path"><path class="cls-1" d="M10.7,36.2A25.5,25.5,0,1,0,36.2,10.6,25.56,25.56,0,0,0,10.7,36.2"/></clipPath></defs><title>VCU_Logo</title><path class="cls-2" d="M72.6,7.9H89.8l12.9,40.9L116.2,7.9h15.5L111.2,64.4H92.5Zm93.6,17.8c-.7-5.7-4.7-7.8-9.1-7.8-9.4,0-12.3,8.7-12.3,19,0,3.4.1,17.7,12.2,17.7,8.3,0,9.1-6,9.4-8.2h16.2c-.1,17.7-18,19.2-25.4,19.2-5.5,0-15.1-.9-21.4-7.5s-7.3-15.6-7.3-21.5c0-7.8,1.8-15.5,7.1-21.5,5.8-6.6,13.2-8.3,21.4-8.3,9.1,0,16.1,2.2,20.5,6.9a17.62,17.62,0,0,1,4.7,12.1h-16ZM202.1,7.9V41.5c0,3.1.2,6.2,1.8,8.5a11.36,11.36,0,0,0,9.6,4.6c9.9,0,11.2-8.1,11.2-13.7V7.9H240V40.6c0,6.3-.9,13.1-4.4,17.2-5.5,6.7-15.5,8.1-22.6,8.1-26.6,0-26.7-16.6-26.7-25.8l.1-32.2ZM72.3,36.2A36.1,36.1,0,1,1,36.2.2a36.06,36.06,0,0,1,36.1,36"/><path class="cls-3" d="M36.1,61.8A25.6,25.6,0,1,1,61.6,36.2,25.5,25.5,0,0,1,36.1,61.8m0-59.6A34,34,0,1,0,70,36.2a34,34,0,0,0-33.9-34"/><path class="cls-4" d="M18.4,61.6q-.3.15-.3.3a.31.31,0,0,0-.1.2c0,.1.2.3.3.4s.1.2,0,.2-.1,0-.2,0-.4-.3-.6-.4l-.6-.3c-.1,0-.1-.1-.1-.2s.2,0,.4-.1.4-.2.7-.4l3.1-2c.3-.2.4-.2.5-.1s.1.1.1.4L21,63.8c-.1.3.1.5.1.6s.1.1.1.2-.1.1-.2,0c-.3-.2-.5-.4-.7-.5a3,3,0,0,0-.8-.4.35.35,0,0,1-.1-.2.19.19,0,0,1,.3,0c.2.1.3,0,.4-.2a.6.6,0,0,0,.1-.4l.3-2.3v-.3a.31.31,0,0,0-.2.1Zm-.8-4.2a.59.59,0,0,0,0-.8c-.1-.1-.1-.1,0-.2s.2,0,.4.2.3.4.5.5.5.3.7.5.2.1.1.2a.14.14,0,0,1-.2,0,.56.56,0,0,0-.6.2l-2,2.3a.52.52,0,0,0,0,.8c.1.1.1.1,0,.2s-.2,0-.4-.2l-.6-.6c-.2-.2-.5-.3-.7-.5s-.2-.1-.1-.2.2,0,.3,0c.3.1.4-.1.6-.3Zm-3.4-.6c.1-.1.2-.2-.1-.5-.4-.5-.8-.5-1.3,0a.85.85,0,0,0-.1,1.3c.2.3.4.2.5.1ZM14,58.3c-.3.3-.2.5-.1.8,0,.1.1.1,0,.2s-.1.1-.2-.1-.2-.3-.5-.7a6,6,0,0,0-.8-.8c-.6-.7-1.1-1.5-.3-2.2a1,1,0,0,1,1-.2c.1.1.3.2.4.1a6.83,6.83,0,0,0,.6-2v-.2c0-.1-.1-.1-.2-.1s0-.1,0-.2c.2-.2.8.4.9.5a.76.76,0,0,1,.1.7l-.6,1.6a.64.64,0,0,0,0,.6.31.31,0,0,0,.2.1l.9-.8c.4-.4.4-.6.2-.9-.1-.1-.1-.1,0-.2s.1,0,.3.2.3.4.5.6l.6.6c.1.1.1.1.1.2a.14.14,0,0,1-.2,0,.88.88,0,0,0-.7.1Zm-3-7.9c-.4.2-.3.5-.2.8,0,.1,0,.1-.1.2s-.1,0-.3-.3a2.51,2.51,0,0,0-.4-.7c-.1-.2-.3-.4-.5-.7-.1-.1-.1-.2,0-.2s.2,0,.2.1c.2.2.5.1.7,0l.8-.5c.1-.1,1.1.7,1.6,1.5a2.19,2.19,0,0,1-.7,3.2,2.53,2.53,0,0,1-3.5-.7,7.93,7.93,0,0,1-.5-1.5c-.1-.1-.2,0-.3-.2v-.1l.8-.6c.1-.1.2-.2.3-.2s.2-.1.2,0-.1.2-.1.3c-.6,1.1-.4,1.5-.1,2,.6,1,1.5.8,2.5.3.8-.5,1.8-1.4,1.2-2.4-.3-.5-.7-.7-1.2-.3Zm-.9-3.5a.51.51,0,0,0,.3-.7c0-.1,0-.2.1-.2s.2.1.3.3.1.5.2.7a4.35,4.35,0,0,0,.4.7.19.19,0,0,1,0,.3.35.35,0,0,1-.2-.1.47.47,0,0,0-.6-.1L7.7,49c-.4.2-.4.4-.3.7,0,.1,0,.2-.1.2s-.2-.1-.3-.3a6.89,6.89,0,0,1-.3-.8,4.35,4.35,0,0,0-.4-.7c0-.1-.1-.2,0-.2s.2.1.3.2.4.1.6,0ZM6.8,45c-.1.2-.2.3-.2.4h.2l2.4-.6a.9.9,0,0,0,.6-.6c0-.2-.1-.4.1-.4a.22.22,0,0,1,.2.2,1.7,1.7,0,0,1,.1.7,1.45,1.45,0,0,1,.2.7c0,.1,0,.1-.1.2s-.2,0-.2-.1a.81.81,0,0,0-.9-.3l-2.5.6c-.3.1-.6.3-.6.5s0,.3-.2.4-.1,0-.1-.1a1.27,1.27,0,0,1-.1-.6,1.42,1.42,0,0,0-.2-.6v-.3l2-3.2a.37.37,0,0,0,.1-.3c0-.1-.1,0-.2,0L5.9,42c-.4.1-.8.2-.8.7,0,.2,0,.4-.1.4s-.1-.1-.2-.2a1.7,1.7,0,0,1-.1-.7,1.45,1.45,0,0,1-.2-.7c0-.1,0-.1.1-.2s.2,0,.2.1a.91.91,0,0,0,.8.3l3.2-.8c.3-.1.4-.1.4,0a1.69,1.69,0,0,1-.2.5Zm1.3-6.5c.4,0,.5-.4.5-.6s0-.1.2-.2.1.2.1.4v.8c0,.3.1.5.1.8,0,.1,0,.2-.1.2a.22.22,0,0,1-.2-.2c-.1-.3-.4-.3-.6-.3l-3,.3c-.4,0-.5.3-.5.6,0,.1,0,.1-.1.2s-.1-.2-.1-.4v-.8c0-.3-.1-.5-.1-.8,0-.1,0-.2.1-.2s.2.2.2.2c.1.3.4.2.6.2ZM6.6,35.8a.31.31,0,0,0,.2.1c.1,0,.1-.1.1-.3v-1a.49.49,0,0,0-.3.1l-1,.4a.1.1,0,0,0-.1.1.35.35,0,0,0,.2.1ZM4.3,35c-.2-.1-.2-.1-.2-.2l.1-.1L8,33.1c.3-.1.6-.2.7-.4s.1-.3.2-.3.1.1.1.2c0,.3-.1.6-.1.9v1a.1.1,0,0,1-.1.1c-.1,0-.1-.1-.1-.2s-.2-.3-.4-.3a2.39,2.39,0,0,0-.9.3c-.1.1-.1.2-.1.5v1c0,.3.7.6,1,.6.1,0,.2-.2.3-.3s.1-.4.2-.4.1.1.1.2-.1.5-.1.7v.7c0,.1,0,.2-.1.2s-.1-.2-.2-.3-.1-.2-.3-.2Zm3-10.2a.6.6,0,0,1,.4.1.1.1,0,0,1,.1.1c0,.1-.2.1-.3.1a2.07,2.07,0,0,0-1.6,1.2c-.3.8,0,1.6,1.4,2a1.71,1.71,0,0,0,2.2-2.5c-.1-.1-.2-.2-.1-.3s.1-.1.1,0a2.42,2.42,0,0,1,.6,2.5,2.32,2.32,0,0,1-2.9,1.6,2.31,2.31,0,0,1-1.7-3.1,3.18,3.18,0,0,1,.8-1.3c.1-.2-.2-.2-.1-.3a.1.1,0,0,1,.1-.1ZM12,22.9c.4-.7-.1-1.6-1-2.1s-2.4-.7-2.9.3c-.4.7.1,1.6,1,2.1s2.4.7,2.9-.3M8,20.7a2.31,2.31,0,0,1,3.2-1.1,2.8,2.8,0,0,1,.9,3.7,2.28,2.28,0,0,1-3.2,1A2.65,2.65,0,0,1,8,20.7m3.1-2.9c-.2-.2-.5-.4-.8-.2s-.3.2-.4.1-.1-.1,0-.1c.1-.2.3-.3.4-.4a1.76,1.76,0,0,1,.4-.5c.1-.1.1-.1.2-.1l3,.8a1.58,1.58,0,0,0,.4.1.49.49,0,0,0-.1-.3l-1.2-3v-.3c.1-.2.3-.3.4-.4a1.76,1.76,0,0,1,.4-.5h.1c.1.1,0,.2,0,.4s-.1.4.2.6l1.8,1.6c.4.4.7.6,1.2.3a.19.19,0,0,1,.3,0c.1.1,0,.2-.1.3l-.6.6a4.23,4.23,0,0,0-.5.7c-.1.1-.2.2-.3.1s-.1-.1,0-.3,0-.3-.3-.5L14,15.3c-.1,0-.1-.1-.2-.1a.77.77,0,0,0,.1.3l1.2,2.8c0,.1.1.2,0,.3s-.1,0-.2,0l-3-.9c-.1,0-.2-.1-.2,0a.1.1,0,0,0,.1.1L13.2,19a.91.91,0,0,0,1.1.2.19.19,0,0,1,.3,0,.14.14,0,0,1,0,.2c-.2.2-.4.3-.5.5a2.09,2.09,0,0,0-.4.6c0,.1-.1.1-.2,0a.19.19,0,0,1,0-.3.63.63,0,0,0-.3-.8Zm5-5.4a.84.84,0,0,0-.7-.4c-.2,0-.3.1-.4,0s0-.1,0-.1c.2-.1.3-.2.5-.3s.3-.3.5-.4a.19.19,0,0,1,.3,0L19,12.7a1.09,1.09,0,0,1,.4.2v-.3L19,9.4V9.2c.2-.1.3-.2.5-.3s.3-.3.5-.4a.1.1,0,0,1,.1.1c.1.1,0,.2-.1.4s-.2.3,0,.7l1.4,2c.3.5.6.7,1.1.6h.3c.1.1,0,.2-.2.2s-.5.3-.7.4-.4.3-.6.5-.2.2-.3.1,0-.2,0-.3,0-.3-.2-.6l-1.3-1.8a.1.1,0,0,0-.1-.1V11l.5,3.1v.3h-.2L17,12.6a.31.31,0,0,0-.2-.1v.2l1,1.5a.78.78,0,0,0,1,.4.37.37,0,0,1,.3.1c.1.1,0,.2-.1.2a2.09,2.09,0,0,0-.6.4,1.21,1.21,0,0,0-.5.5c-.1,0-.1.1-.2,0s0-.2,0-.3a.74.74,0,0,0-.1-.9Zm9.5-1.7a1.62,1.62,0,0,0,.5-2.2c-.4-.9-1.5-2-2.5-1.6a1.62,1.62,0,0,0-.5,2.2c.4.9,1.4,2,2.5,1.6M23.8,6.5A2.41,2.41,0,0,1,27,7.7a2.63,2.63,0,0,1-1.6,3.4,2.24,2.24,0,0,1-3.1-1.2,2.66,2.66,0,0,1,1.5-3.4m4.9-.1c-.2-.1-.3-.2-.4-.2v.2l.5,2.4c.1.3.2.6.6.6.2,0,.4,0,.4.1s-.1.2-.3.2a1.7,1.7,0,0,0-.7.1,1.85,1.85,0,0,0-.7.2c-.1,0-.1,0-.2-.1a.35.35,0,0,1,.1-.2c.3-.3.4-.5.3-.8l-.5-2.5c-.1-.3-.2-.6-.5-.7s-.3-.1-.4-.2,0-.1.1-.1.4-.1.6-.1a1.42,1.42,0,0,0,.6-.2h.3l3.1,2.2a.37.37,0,0,0,.3.1c.1,0,0-.1,0-.2l-.3-1.5c-.1-.4-.2-.8-.6-.9-.2,0-.4,0-.4-.1s.1-.1.2-.2a1.7,1.7,0,0,0,.7-.1,1.85,1.85,0,0,0,.7-.2c.1,0,.1,0,.2.1a.35.35,0,0,1-.1.2.81.81,0,0,0-.3.9l.7,3.2c.1.3,0,.4,0,.4a1.69,1.69,0,0,1-.5-.2Zm4.8-1.7a1.38,1.38,0,0,0-.3-.4.22.22,0,0,1-.2-.2.37.37,0,0,1,.3-.1c.3,0,.5.1.8.1h.8c.1,0,.2,0,.2.1s-.1.1-.2.2-.2.2-.2.3.1.2.1.4l.7,2.2c0,.1,0,.1.1.1l.1-.1.7-1.5L36,4.7a1.38,1.38,0,0,0-.3-.4.22.22,0,0,1-.2-.2c0-.1.1-.1.2-.1.3,0,.5.1.8.1h.8c.1,0,.2,0,.2.1s-.1.1-.2.2-.2.2-.2.3a4.33,4.33,0,0,1,.1.5l.7,2.1c0,.1,0,.1.1.1a.35.35,0,0,0,.1-.2l.7-1.8a1.09,1.09,0,0,0,.1-.5c0-.3-.4-.3-.5-.4s-.2-.1-.2-.2.1-.1.2-.1.5.1.7.1h.7c.1,0,.2,0,.2.1s-.1.1-.3.2-.2.3-.4.7L38,8.6c-.1.4-.2.4-.3.4s-.1,0-.2-.3l-.7-2.2a.35.35,0,0,0-.1-.2.35.35,0,0,0-.1.2l-1,2c-.2.3-.2.4-.3.4s-.1,0-.2-.3Zm7.6,1c.1-.3.1-.8-.1-.9s-.3-.2-.3-.3.1-.1.3-.1a8.33,8.33,0,0,0,1.5.4c.5.1,1,.1,1.5.2.2,0,.3.1.3.2s-.1.3-.1.4a.6.6,0,0,1-.1.4c0,.1,0,.1-.1.1s-.1-.1-.1-.2c0-.4-.1-.6-.9-.8L42.6,5c-.2,0-.2,0-.3.3L42,6.6c0,.1.1.2.3.2a.9.9,0,0,0,.9-.2c.1-.2.1-.2.2-.2s.1.1.1.2a1.42,1.42,0,0,1-.2.6c0,.2-.1.4-.1.6s0,.2-.2.2-.1-.2-.1-.4-.3-.4-.7-.5-.4,0-.4.2l-.2,1.1c-.1.5,0,.6.3.7a1.89,1.89,0,0,0,1.4-.2c.3-.2.4-.4.5-.4a.1.1,0,0,1,.1.1,1.06,1.06,0,0,1-.2.5.81.81,0,0,1-.8.4l-1.3-.3c-.4-.1-.9-.1-1.3-.2s-.4,0-.4-.1.2-.1.3-.2.3-.2.4-.6Zm5.1,2.7-.1.1c0,.1.1.1.2.2L47,9c.2,0,.2.1.3,0V8.7l-.1-1c0-.1,0-.2-.1-.2a.35.35,0,0,1-.2.1Zm1.6-1.9c.1-.2.2-.2.2-.2v.2l.2,4.1a1.08,1.08,0,0,0,.2.8c.1.1.2.2.2.3s-.1.1-.2,0c-.3-.1-.6-.3-.9-.4l-.9-.3a.1.1,0,0,1-.1-.1c0-.1.1-.1.2-.1a.52.52,0,0,0,.4-.2,1.38,1.38,0,0,0,0-.9,1.07,1.07,0,0,0-.5-.3l-1-.4c-.3-.1-.8.4-.9.7a.76.76,0,0,0,.2.4c.2.1.4.3.3.4s-.1.1-.2,0l-.6-.3c.1-.2-.2-.2-.4-.3s-.2-.1-.1-.2.2-.1.3-.1.2-.1.3-.2Zm3.5,2.4a.59.59,0,0,0-.1-.8c-.1,0-.1-.1,0-.2s.1-.1.2,0c.3.2.5.4.8.6a5.9,5.9,0,0,0,.8.4.35.35,0,0,1,.1.2c-.1.1-.2.1-.2,0a.49.49,0,0,0-.6.3l-1.5,2.5c-.3.4-.2.5.1.7a1.62,1.62,0,0,0,1.4.3c.3-.1.5-.2.6-.1s.1.2,0,.3a1,1,0,0,1-1.4.3c-.4-.2-1.2-.8-1.5-1a2.51,2.51,0,0,1-.7-.4c-.1-.1-.2-.1-.2-.2s.2,0,.3,0c.3,0,.4-.2.5-.4Zm4.4,2.7c.2-.2.1-.3-.2-.5-.5-.4-.8-.6-1.3-.1h-.1c-.1-.1-.1-.1,0-.1l.2-.2.5-.5c.1-.1.1-.1.3,0,.5.4,1,.9,1.6,1.4a18.26,18.26,0,0,1,1.6,1.3c.1.1.1.1,0,.3l-.4.6-.1.1h-.1l-.1-.1c.3-.6.1-.9-.4-1.3-.3-.2-.4-.3-.6-.1l-2,2.4c-.3.4,0,.7.1.9s.1.1,0,.2-.1,0-.2,0a6.47,6.47,0,0,0-.9-.8,6.07,6.07,0,0,0-1-.7c-.1-.1-.1-.1-.1-.2s.2,0,.3,0,.6.4.9-.1Zm4,5.9c.2.2.3.2.4.1l.7-.6a.53.53,0,0,0,.1-.8c-.1-.1,0-.1,0-.2s.2.1.3.2.3.5.5.7l.6.6c.1.1.1.2,0,.2a.14.14,0,0,1-.2,0,.62.62,0,0,0-.7.1l-2.4,2a.53.53,0,0,0-.1.8c.1.1,0,.1,0,.2s-.2-.1-.3-.2-.3-.5-.5-.7l-.6-.6c-.1-.1-.1-.2,0-.2a.14.14,0,0,1,.2,0c.2.2.5,0,.7-.1l1-.8c.2-.1.1-.2,0-.3l-1.1-1.3c-.1-.1-.2,0-.3,0l-1,.8a.53.53,0,0,0-.1.8c.1.1.1.1,0,.2s-.2-.1-.3-.2-.3-.5-.5-.7l-.6-.6c-.1-.1-.1-.2,0-.2a.14.14,0,0,1,.2,0,.49.49,0,0,0,.7-.1l2.3-2a.53.53,0,0,0,.1-.8c-.1-.1-.1-.1,0-.2s.2.1.3.2.3.5.5.7l.6.6c.1.1.1.2,0,.2a.14.14,0,0,1-.2,0c-.2-.2-.5,0-.7.1l-.6.6a.19.19,0,0,0,0,.3Zm4.1,4.2c.4-.2.4-.4.3-.7,0-.1,0-.2.1-.2s.1,0,.3.3a6.89,6.89,0,0,1,.3.8c.1.2.3.5.4.7a.14.14,0,0,1,0,.2c-.1,0-.1,0-.2-.1a.47.47,0,0,0-.6-.1l-1.9.9a1.32,1.32,0,0,0-.7,1.8A1.53,1.53,0,0,0,64,26l1.6-.7a.52.52,0,0,0,.3-.7.37.37,0,0,1,.1-.3c.1,0,.1,0,.2.2s.1.4.2.6l.3.6a.14.14,0,0,1,0,.2.22.22,0,0,1-.2-.2c-.2-.1-.3-.1-.8.1l-1.7.5a2,2,0,0,1-3-1.2,1.64,1.64,0,0,1,.9-2.5l1.9-.9Zm2,6.6c.1-.2.2-.3.2-.4h-.2l-2.4.5a.74.74,0,0,0-.6.6c0,.2,0,.4-.1.4s-.2-.1-.2-.3,0-.5-.1-.7a1.85,1.85,0,0,1-.2-.7c0-.1,0-.1.1-.2s.2,0,.2.1c.3.3.5.4.8.3l2.5-.5c.3-.1.6-.2.7-.5s.1-.3.2-.4.1,0,.1.1.1.4.1.6a1.42,1.42,0,0,0,.2.6v.3L65,31.3a.37.37,0,0,0-.1.3c0,.1.1,0,.2,0l1.5-.3c.4-.1.8-.2.8-.6,0-.2,0-.4.1-.4s.1.1.2.2,0,.5.1.7a1.85,1.85,0,0,1,.2.7c0,.1,0,.1-.1.2a.35.35,0,0,1-.2-.1c-.3-.3-.5-.4-.8-.3l-3.2.7c-.3.1-.4.1-.4,0a1.69,1.69,0,0,1,.2-.5Zm-1.6,6.5c-.4,0-.5.4-.5.6s0,.1-.2.2-.1-.2-.1-.4v-.8c0-.3-.1-.5-.1-.8,0-.1,0-.2.1-.2a.22.22,0,0,1,.2.2c.1.3.4.3.6.3l3-.2c.4,0,.5-.3.5-.6,0-.1,0-.1.2-.2s.1.2.1.4v.8c0,.3.1.5.1.8,0,.1,0,.2-.1.2s-.2-.2-.2-.2a.4.4,0,0,0-.6-.2Zm2.6,5c.2.1.3.2.4.2a.37.37,0,0,0,.3-.1c.1-.1.1-.3.2-.5s.1-.1.2-.1.1.1.1.2-.1.5-.1.7v.7c0,.1,0,.2-.1.1s-.1-.2-.2-.3-.3-.3-.7-.5l-3.2-1.7q-.45-.3-.3-.3c0-.1.1-.1.3-.2l3.9-1.4a1.08,1.08,0,0,0,.5-.4c.1-.1.1-.2.2-.2s.1.1.1.2c0,.3-.1.6-.1.9V38s0,.2-.1.2-.1-.1-.1-.2-.2-.2-.3-.2-.3.1-.4.1l-2.4.6a.77.77,0,0,1-.3.1s0,.1.2.1Zm-.4,2.4c.3.1.8.2.9-.1s.2-.3.3-.3.1.1,0,.3a8.33,8.33,0,0,0-.4,1.5l-.3,1.5c0,.2-.1.3-.2.3s-.3-.1-.4-.1a.6.6,0,0,1-.4-.1.1.1,0,0,1-.1-.1c0-.1.1-.1.2-.1.4.1.6-.1.8-.9l.1-.4c0-.2,0-.2-.3-.3L65.5,43c-.1,0-.2.1-.2.3-.1.4-.1.7.2.9s.2.2.2.2-.1.1-.2.1a1.42,1.42,0,0,1-.6-.2c-.2,0-.4-.1-.6-.1s-.2,0-.2-.2.2-.1.4-.1.4-.3.5-.7,0-.4-.2-.4l-1.1-.3c-.5-.1-.6,0-.7.3a1.56,1.56,0,0,0,.1,1.4c.2.3.4.4.3.5s-.1.1-.2.1a1.06,1.06,0,0,1-.5-.2.81.81,0,0,1-.4-.8c.1-.4.3-.9.4-1.3s.2-.9.3-1.3c0-.2.1-.3.2-.3s.1.2.1.3.2.3.6.4ZM64,47.6c-.1,0-.2-.1-.4.3a.82.82,0,0,0,.5,1.2.87.87,0,0,0,1.2-.4c.1-.3.1-.4-.2-.5Zm1.4-.5a.46.46,0,0,0,.7-.2c0-.1.1-.1.2-.1s.1.1,0,.2a3.22,3.22,0,0,0-.4.7c-.1.3-.3.8-.4,1.1-.4.8-.9,1.6-1.9,1.2a.94.94,0,0,1-.6-.8v-.4a10.4,10.4,0,0,0-2.1.3.35.35,0,0,0-.2.1c0,.1,0,.1-.1.2s-.1.1-.2.1c-.3-.1,0-.9.1-1.1a.92.92,0,0,1,.6-.4l1.6-.1a.55.55,0,0,0,.5-.3c.1-.2.1-.2,0-.3l-1.1-.5c-.5-.2-.7-.1-.8.2,0,.1-.1.1-.2.1s-.1-.1.1-.4.3-.5.4-.7a6.89,6.89,0,0,0,.3-.8c0-.1.1-.2.2-.1s.1.2.1.2a.46.46,0,0,0,.4.5ZM61,50.3c.1,0,.2,0,.2.1a.14.14,0,0,1,0,.2c-.1.1-.2,0-.4,0a1.58,1.58,0,0,0-1.6.6.83.83,0,0,0,.2,1.2c.9.6,1.8-1.8,3.4-.8a1.4,1.4,0,0,1,.4,1.9c-.3.5-.7.6-.8.8a.37.37,0,0,1-.1.3c0,.1-.1.1-.2,0a4.53,4.53,0,0,0-1-.5c-.1,0-.1-.1-.1-.2a.19.19,0,0,1,.3,0,1.65,1.65,0,0,0,1.5-.5c.2-.4.2-.8-.1-1-1-.6-1.8,1.8-3.4.8a1.43,1.43,0,0,1-.4-2.1c.2-.4.6-.6.9-.9a.35.35,0,0,1,.2-.1Zm-3.4,4.2a.59.59,0,0,0-.8,0c-.1.1-.1.1-.2,0s0-.2.2-.4.3-.3.5-.6.3-.5.5-.7.1-.2.2-.1a.14.14,0,0,1,0,.2.56.56,0,0,0,.2.6l2.4,1.9a.52.52,0,0,0,.8,0c.1-.1.1-.1.2,0s0,.2-.2.4l-.6.6c-.2.2-.3.5-.5.7s-.1.2-.2.1,0-.2,0-.3c.1-.3-.1-.4-.3-.6Zm.3,4.4c.2.2.3.1.6-.1.5-.4.7-.7.3-1.3v-.1c.1-.1.1-.1.1,0a.35.35,0,0,1,.1.2l.4.6c.1.1.1.1,0,.3-.5.5-1,.9-1.6,1.4l-1.5,1.5a.19.19,0,0,1-.3,0l-.5-.5-.1-.1v-.1c.1-.1.1-.1.1,0,.6.4.8.2,1.3-.2.3-.3.3-.4.2-.6l-2-2.6c-.4-.4-.7-.1-.9,0s-.1.1-.3,0,0-.1,0-.2c.3-.3.6-.5.9-.8l.9-.9c.1-.1.1-.1.2,0a.14.14,0,0,1,0,.2c-.1.2-.4.5-.1.9l2.2,2.4ZM52,63c0,.2,0,.3.1.3.1.2.3.1.6,0,.1,0,.1,0,.2.1s0,.1-.1.2l-.6.3c-.2.1-.4.3-.6.4s-.1.1-.2,0,0-.1.1-.2.1-.3.1-.8V61.6c0-.2,0-.3-.1-.4l-.5-.9c-.2-.3-.4-.4-.7-.3-.1.1-.3.1-.3,0s.1-.2.2-.3c.3-.2.5-.3.8-.5s.4-.3.7-.5.3-.2.4-.1,0,.2-.2.3-.2.5,0,.8l.5.7a.1.1,0,0,0,.1.1l1.9,1a1.51,1.51,0,0,0,.8.2c.1-.1.3-.1.3,0s0,.2-.1.2c-.3.2-.5.3-.8.5s-.5.4-.7.5a.19.19,0,0,1-.3,0c-.1-.1.1-.2.2-.3s.1-.2,0-.2-.2-.2-.3-.2l-1.1-.6a.77.77,0,0,0-.3-.1v.3ZM26.3,64.5h-.4a.37.37,0,0,0-.3.1c-.1,0-.1.1-.2.1l-.3.3H25v-.4a.37.37,0,0,0-.1-.3c0-.1-.1-.1-.1-.2l-.3-.3h.4a.37.37,0,0,0,.3-.1c.1,0,.1-.1.2-.1l.3-.3v.4a.37.37,0,0,0,.1.3c0,.1.1.1.1.2C26.2,64.2,26.2,64.3,26.3,64.5Zm4.1-.7a.22.22,0,0,0-.2-.2h-.3c-.1,0-.2,0-.1-.2s.2-.1.3-.1a2,2,0,0,0,1.1-.2.35.35,0,0,1,.2-.1c.1,0,.1,0,.1.2l-.7,3.7a.49.49,0,0,0,.3.6c.1.1.3.1.3.2s-.1.1-.3.1a3.09,3.09,0,0,0-.8-.2,2.77,2.77,0,0,0-.9-.1c-.2,0-.2-.1-.2-.1s.2-.1.3-.1.4-.1.4-.3Zm2.8.4c0,.7.9,1,1.1,1a.58.58,0,0,0,.6-.6.84.84,0,0,0-.9-.9c-.3-.2-.7,0-.8.5m.3,1.7c-.1,0-.1-.1-.2-.1s-.3.3-.4.7c0,.7.3,1.2,1,1.2a.93.93,0,0,0,1-.7c0-.4-.1-.6-.4-.7Zm2-1.5a.77.77,0,0,1-.7.8c-.1,0-.2,0-.2.1l.1.1a1.6,1.6,0,0,1,.8,1.4c-.1,1.1-1,1.4-1.9,1.3s-1.5-.5-1.4-1.4a.88.88,0,0,1,.7-.9H33l-.1-.1a1.11,1.11,0,0,1-.4-1.1,1.38,1.38,0,0,1,1.6-1.2c.7,0,1.5.3,1.4,1m2-.6c-.4,0-.5.4-.7.4a.1.1,0,0,1-.1-.1,1.47,1.47,0,0,1,1.3-.8c.5,0,1,.2,1,.8a1.33,1.33,0,0,1-.6,1v.1h.1a.94.94,0,0,1,1,1,1.79,1.79,0,0,1-1.7,1.9c-.6,0-1.2-.3-1.2-.5s0-.1.1-.1.3.3.9.3a.94.94,0,0,0,.9-1.2.77.77,0,0,0-.7-.8.37.37,0,0,0-.3.1c-.1,0-.1,0-.1-.1s.2-.2.2-.2a1,1,0,0,0,.5-1c0-.5-.3-.8-.6-.8m3.9,1.8h-.2c-.1,0-.3.3-.2.8a1,1,0,0,0,1.3.9c.3-.1.9-.4.8-.9s-.2-.5-.6-.6ZM40.7,64c.1.7,1.2.7,1.3.6.4-.1.5-.4.4-.8a.92.92,0,0,0-1.1-.7.8.8,0,0,0-.6.9m2.3-.4c.1.5-.1.7-.5,1a.1.1,0,0,0-.1.1.1.1,0,0,1,.1.1,1.39,1.39,0,0,1,1.1,1.1c.2,1.1-.6,1.6-1.5,1.7a1.36,1.36,0,0,1-1.8-1,1.11,1.11,0,0,1,.4-1.1l.1-.1a.1.1,0,0,1-.1-.1,1.27,1.27,0,0,1-.7-.9c-.2-.8.5-1.4,1.2-1.6.8,0,1.7.1,1.8.8m5.2,0-.3.3a.31.31,0,0,0-.1.2c0,.1,0,.1-.1.3v.4l-.3-.3a.31.31,0,0,0-.2-.1.37.37,0,0,1-.3-.1h-.4v-.1l.3-.3a.31.31,0,0,0,.1-.2c0-.1,0-.1.1-.3V63l.3.3a.31.31,0,0,0,.2.1c.1,0,.1,0,.3.1A.6.6,0,0,1,48.2,63.6Z"/><path class="cls-2" d="M61.6,36.2A25.5,25.5,0,1,1,36.1,10.6,25.56,25.56,0,0,1,61.6,36.2"/><g class="cls-5"><path class="cls-3" d="M30.8,34.3l-.2,15.9a.31.31,0,0,0,.1.2c.1.1.5.2,1.7.2a5.9,5.9,0,0,0,1.7-.2.31.31,0,0,0,.1-.2L34,34.3a3.2,3.2,0,0,0-1.6-.3,3.2,3.2,0,0,0-1.6.3m1.6-5c-1.9,0-2.4.6-2.4.6v.2a.71.71,0,0,1,.6.4,14.87,14.87,0,0,1,.3,2.5v.1a4,4,0,0,1,1.6-.3,2.75,2.75,0,0,1,1.6.3v-.2a9.84,9.84,0,0,1,.3-2.5,1,1,0,0,1,.5-.5v-.2a8.32,8.32,0,0,0-2.5-.4m5.8,5L38,50.1a.31.31,0,0,0,.1.2c.1.1.5.2,1.7.2s1.6-.1,1.7-.2a.31.31,0,0,0,.1-.2l-.2-15.9a3.2,3.2,0,0,0-1.6-.3c-1,.1-1.4.2-1.6.4m4-4.4s-.5-.6-2.4-.6-2.4.6-2.4.6v.2a1,1,0,0,1,.5.5,6.63,6.63,0,0,1,.3,2.5v.2a4,4,0,0,1,1.6-.3,2.75,2.75,0,0,1,1.6.3v-.1a14.87,14.87,0,0,1,.3-2.5.71.71,0,0,1,.6-.4ZM53.1,50H49.4a.1.1,0,0,1-.1-.1l-.6-18.4a.1.1,0,0,1,.1-.1h2.5a.1.1,0,0,1,.1.1l1.8,18.4c0-.1,0,.1-.1.1M52,30.8a.1.1,0,0,0-.1-.1H48.3a.1.1,0,0,0-.1.1l.5,19.9a.1.1,0,0,0,.1.1h5.1c.2,0,.2-.1.2-.1Zm-29,19a.1.1,0,0,1-.1.1H19.2c-.2,0-.1-.2-.1-.2l1.8-18.4a.1.1,0,0,1,.1-.1h2.5a.1.1,0,0,1,.1.1Zm.6.8.5-19.9a.1.1,0,0,0-.1-.1H20.4a.1.1,0,0,0-.1.1L18.2,50.6a.1.1,0,0,0,.1.1h5.1c.2.1.2-.1.2-.1"/></g><g class="cls-5"><path class="cls-3" d="M54.1,27.8a2.69,2.69,0,0,0-.7.6,1.43,1.43,0,0,0-.2.7H46.7a2.64,2.64,0,0,0-.1-.7,1.49,1.49,0,0,0-.6-.6v-.2a.1.1,0,0,1,.1-.1h1.5A2.77,2.77,0,0,0,50,28.6a2.55,2.55,0,0,0,2.4-1.1H54a.1.1,0,0,1,.1.1ZM43.9,26.5H28.4v-.9H43.9ZM31.8,22.8a5.24,5.24,0,0,0,1.6.3c1,0,1.3-.3,1.6-.1s0,.4,0,.7a.43.43,0,0,0,.4.4c.2,0,.3-.1.3-.2a.76.76,0,0,1-.2-.4.6.6,0,0,1,1.2,0,.52.52,0,0,1-.2.4c0,.1.1.2.3.2a.37.37,0,0,0,.4-.4c0-.2-.2-.5,0-.7s.6,0,1.6.1a5.24,5.24,0,0,0,1.6-.3,2.45,2.45,0,0,1-1.9,1.5,11.24,11.24,0,0,1-2.4.3,11.91,11.91,0,0,1-2.4-.3,2.45,2.45,0,0,1-1.9-1.5m-5.6,5a3.08,3.08,0,0,0-.6.6,1,1,0,0,0-.1.7H19a1.43,1.43,0,0,0-.2-.7,2.69,2.69,0,0,0-.7-.6v-.2a.1.1,0,0,1,.1-.1h1.4A2.77,2.77,0,0,0,22,28.6a2.55,2.55,0,0,0,2.4-1.1h1.5a.1.1,0,0,1,.1.1v.2Zm29-2.2H43.9l.1-.8H54.9v-.6a2,2,0,0,1,.4-1.1l1.4-1.8v-.5c0-.1,0-.1-.1-.1H43.5c-.1,0-.1,0-.1.1v1H28.9v-1a.1.1,0,0,0-.1-.1H15.7c-.1,0-.1,0-.1.1v.5L17,23.1a2,2,0,0,1,.4,1.1v.6H28.3l.1.8H17.1l-3.6,27h3.1l2.6-22.9h6.4l-.3,22.9h2.5l.7-1.1V28.2H44V51.5l.7,1.1h2.5l-.3-22.9h6.4l2.6,22.9H59l-3.8-27Z"/></g><path class="cls-3" d="M29.9,18c0,1.1.6.7.6,1a.1.1,0,0,1-.1.1H29.2L29,19c0-.2.5-.1.5-.7l.1-2.5c0-1-.6-.7-.6-1a.1.1,0,0,1,.1-.1h1c.1,0,.1,0,.2.2l1.4,3c0,.1,0,.1.1.1l.1-.1,1.4-3s0-.1.2-.1h.8c.2,0,.2,0,.2.1s-.6,0-.6.7l.1,2.8c0,.8.6.5.6.8,0,.1-.1.1-.3.1H33.1c-.1,0-.3,0-.3-.1s.5,0,.4-.7L33,16.4c0-.2,0-.3-.1-.3a1.24,1.24,0,0,0-.2.3l-1.2,2.5a.22.22,0,0,1-.2.2c-.1,0-.1-.1-.2-.2L30,16.2a.1.1,0,0,0-.1-.1Z"/><path class="cls-3" d="M38.4,16c0,.1,0,.2-.1.2s-.1-.1-.2-.2a1.88,1.88,0,0,0-1.6-1.1,1.57,1.57,0,0,0-1.4,1.7c0,.9.5,2.1,1.7,2.1a2.1,2.1,0,0,0,1.5-.8.1.1,0,0,1,.1.1,2.12,2.12,0,0,1-2,1.2,2,2,0,0,1-2.1-2.1,2.24,2.24,0,0,1,2.2-2.4,4,4,0,0,1,1.4.4c.1,0,.1-.2.2-.2h.1Zm2.8,2.9c-.1.2-.1.2-.2.2s-.1-.1-.2-.3l-1.5-3.6a.78.78,0,0,0-.4-.4.1.1,0,0,1-.1-.1c0-.1.2-.1.3-.1h1.3c.2,0,.2,0,.2.1s-.4.1-.4.3a5.07,5.07,0,0,0,.2.9l.8,2,.1.1.1-.1.9-1.9a1.43,1.43,0,0,0,.2-.7c0-.6-.6-.4-.6-.6s.2-.1.3-.1h1c.1,0,.2,0,.2.1s-.3.1-.4.5ZM32.5,55.7c0,.2.2.2.4.2,1,0,1-.4,1-.7a1,1,0,0,0-1-1.1c-.2,0-.4,0-.4.4Zm-.8-1.1c0-.7-.7-.5-.7-.7a.1.1,0,0,1,.1-.1h2.1c1.4,0,1.5.9,1.5,1.2a1,1,0,0,1-.4.8c-.2.1-.4.2-.4.3s.5,1,1,1.8a.31.31,0,0,0,.2.1h.2c.1,0,.1,0,.1.1s-.4.3-.7.3c-.5,0-.7-.4-.9-.8l-.5-1c-.1-.3-.3-.3-.6-.3s-.3,0-.3.3v1.1c0,.7.6.4.6.7,0,.1-.1.1-.2.1H31.2c-.1,0-.2,0-.2-.1s.5,0,.5-.8v-3Zm5.2,2.9c0,.8.6.6.6.8s-.1.1-.2.1H35.6a.1.1,0,0,1-.1-.1c0-.2.5,0,.5-.9V54.6c0-.7-.7-.4-.7-.7,0,0,0-.1.2-.1h1.9c.8,0,1.6.3,1.6,1.3a1.29,1.29,0,0,1-1.4,1.3c-.6,0-.7-.2-.7-.2a.1.1,0,0,1,.1-.1h.3a.77.77,0,0,0,.8-.9,1,1,0,0,0-1-1.1c-.3,0-.4.1-.4.4v3Zm4.2,0c0,.8.7.5.7.7s-.1.1-.2.1H39.9c-.1,0-.1,0-.1-.1s.5-.1.5-.7V54.4c0-.6-.7-.4-.7-.6s.2-.1.2-.1h1.5c.2,0,.2,0,.2.1s-.5,0-.5.6v3.1Zm3.2-41,6,.3-6,.3s-1,0-1-.3,1-.3,1-.3m-16.7.7-6-.3,6-.3s1,0,1,.3-1,.3-1,.3M43.2,55.7l6,.3-6,.3s-1,0-1-.3,1-.3,1-.3m-13.9.7-6-.3,6-.3s1,0,1,.3-1,.3-1,.3"/></svg>